<svg width="54" height="100" viewBox="0 0 54 160" fill="none" xmlns="http://www.w3.org/2000/svg">
<path d="M52.433 102.866C51.5076 102.918 49.0887 103.031 47.711 103.031C47.2272 103.031 39.8655 102.794 33.7342 102.949C31.6203 103 29.4013 102.836 27.3926 102.836C26.9509 102.836 27.2243 103.668 27.1928 104.562C27.1822 105.035 27.3085 108.726 27.3085 109.198C27.3085 109.548 27.0771 110.874 27.4136 110.895C29.212 111.038 33.8394 111.265 35.3012 110.997C37.068 110.668 35.7639 108.654 37.8778 108.294C40.5701 107.842 44.3036 107.574 46.9328 106.824C48.1422 106.474 52.9168 104.85 52.9694 103.103C52.9799 102.877 52.6749 102.856 52.433 102.866Z" stroke="#BC955C" stroke-miterlimit="10"></path>
<path d="M38.404 151.076C37.7099 149.35 37.0158 147.9 37.1631 145.813C37.5417 144.539 37.731 143.161 37.9834 142.154C38.7511 139.111 38.7406 136.12 38.7511 132.995C38.7616 129.418 37.731 125.892 37.1631 122.377C36.9001 120.773 36.3848 119.221 36.1219 117.638C35.859 116.024 36.2586 112.95 35.533 113.074C34.5549 113.249 27.3088 112.55 27.2037 113.259C27.0144 114.523 27.1931 115.448 27.0775 116.373C26.8776 118.059 26.5096 119.611 26.5201 121.328C26.5411 127.907 26.2571 134.527 26.6357 141.136C26.6883 142.041 26.7199 142.956 26.7935 143.871C26.7725 143.912 26.762 143.973 26.7725 144.086C26.8356 144.755 26.9092 145.505 26.9828 146.297C26.9933 146.667 27.0038 147.037 27.0669 147.366C27.1721 148.722 27.2563 150.223 27.2878 151.817C27.3299 153.77 28.2028 156.473 28.7181 157.172C30.6321 159.845 34.334 159.423 36.9212 156.967C38.8878 155.116 39.5819 153.996 38.404 151.076ZM30.3692 121.451C30.6006 121.112 30.9792 120.896 31.3998 120.845C31.4735 120.835 31.5471 120.835 31.6207 120.835C34.2815 120.927 33.4612 124.566 31.2842 124.073C30.0011 123.775 29.7698 122.335 30.3692 121.451ZM33.7872 152.361C33.1877 153.225 31.3999 153.081 31.0528 151.806C30.7899 150.84 31.5576 149.668 32.5778 149.73C33.3034 149.771 34.1763 150.203 34.1658 151.179C34.1763 151.539 33.9975 152.063 33.7872 152.361Z" stroke="#BC955C" stroke-miterlimit="10"></path>
<path d="M52.591 81.7424C52.6015 80.0977 52.3491 78.5249 52.3386 76.9008C52.3175 72.9741 51.8864 69.1194 51.6655 65.2132C51.4762 61.7491 51.7496 58.3363 51.2238 54.8928C50.6349 51.0791 49.804 47.3066 49.1204 43.5136C48.2896 38.9495 47.1538 34.4163 46.0916 29.8832C45.3239 26.6349 43.6833 23.7875 42.2425 20.7962C41.8849 20.0561 41.317 19.4496 40.9384 18.7198C40.5387 17.9488 40.1917 17.1985 39.771 16.4172C38.5301 14.1147 37.8149 12.4083 36.6791 10.815C35.4381 9.06749 35.4066 8.47131 34.2182 6.2407C33.7134 5.30528 32.9351 3.84562 32.3251 2.9102C31.8098 2.11869 31.0211 0.967396 30.8002 1.45052C30.1587 2.86907 30.2428 4.12316 29.9904 5.66506C29.6223 7.89567 29.6434 10.1777 29.4751 12.4186C29.3173 14.5361 29.0755 16.6434 28.9177 18.7712C28.781 20.6626 28.802 22.5437 28.5917 24.4248C28.15 28.4441 28.2446 32.6072 28.0448 36.6469C27.845 40.5634 27.4664 44.4798 27.3717 48.3962C27.1719 56.0441 27.7398 59.5699 27.561 68.5643C27.4769 73.0152 27.3612 80.1593 27.3823 84.6103C27.3928 88.1567 27.2666 90.8704 27.2876 94.4168C27.2981 95.7531 27.2245 98.9397 27.1404 100.327C27.0773 101.273 27.6031 100.934 28.4339 100.913C29.4856 100.893 31.3261 101.037 32.3777 101.098C34.3549 101.211 44.6298 101.283 46.1863 101.273C47.1643 101.263 49.7409 101.314 51.4657 101.17C52.1177 101.119 52.917 100.996 52.917 99.9265C52.917 95.5167 53.1168 91.0349 52.896 86.8923C52.7908 85.1757 52.5805 83.4384 52.591 81.7424Z" stroke="#BC955C" stroke-miterlimit="10"></path>
<path d="M17.1853 112.365C16.8717 116.071 16.6545 119.787 16.4374 123.513C15.8703 132.895 15.5567 141.555 15.3878 151.678C15.3637 152.906 15.3636 152.601 15.3636 153.83C15.3516 155.312 15.2309 156.054 15.1586 157.241C15.1224 157.81 14.8651 159.434 14.7083 158.754C14.5514 158.043 14.5312 156.947 14.5312 156.47C14.5071 152.338 14.1814 149.017 14.0004 144.885C13.8074 140.499 13.9883 136.956 13.6626 132.58C13.361 128.397 13.2524 124.062 13.2162 119.879C13.1921 117.686 13.361 115.432 13.2042 112.467C13.1197 110.802 12.8905 109.726 12.3838 109.076C11.7564 108.264 10.3087 108.121 9.25915 108.213C7.28062 108.385 7.11174 109.827 6.90665 111.502C6.53266 114.518 6.36373 116.772 6.31548 119.158C6.23103 123.32 5.94151 127.869 5.77261 132.052C5.55545 137.484 5.78467 140.002 5.31417 145.302C5.15733 147.099 5.02462 148.865 5.04875 150.652C5.07288 152.703 5.0005 154.104 4.79541 156.145C4.77128 156.429 4.60858 158.307 4.5 158.754C4.28284 159.577 4.02331 158.165 4.08363 157.028C4.2284 154.51 3.72168 151.251 3.72168 148.723C3.69755 138.753 3.19088 131.473 3.14262 122.325C3.11849 118.122 2.88927 113.919 2.53941 109.736C2.39464 107.959 2.03272 104.7 1.59841 102.964C1.09171 100.872 -0.0182145 98.6082 3.23912 97.8873C5.90531 97.2985 7.48571 96.9431 7.94415 94.3236C8.33021 92.1408 8.20958 88.4654 8.22164 86.2825C8.24577 82.7798 8.25782 81.4294 8.17338 77.551C8.13718 75.9773 7.727 74.3224 7.67874 73.3781C7.57016 72.9822 7.58222 72.4238 7.41332 72.0684C6.91869 71.043 5.4348 70.4947 4.25251 70.1495C3.9509 70.0581 2.66006 69.9262 2.46703 69.7231C2.3102 69.5607 2.3705 68.5352 2.49115 68.4134C2.63592 68.2611 4.67477 68.0885 6.53266 68.1291C7.4978 68.1494 12.5647 67.9362 16.8475 68.2509C18.8261 68.3931 18.7296 68.4845 18.7899 68.9616C18.9226 70.0379 18.8743 69.7536 18.1625 69.9262C17.1129 70.1698 15.2671 70.779 14.4588 71.3983C13.9883 71.7537 13.8798 72.5862 13.6626 73.1852C13.4093 74.3325 13.2765 75.429 13.2524 75.6727C12.8784 79.8456 12.7819 82.6478 12.6613 85.917C12.5527 89.1253 12.3958 91.9073 12.5044 95.1054C12.6009 97.7655 20.5271 97.0954 19.9722 99.5017C19.574 101.217 18.8985 105.137 18.2591 106.822C17.5835 108.69 17.3542 110.426 17.1853 112.365Z" stroke="#BC955C" stroke-miterlimit="10"></path>
<path d="M5.86417 63.0088C8.24514 62.7585 11.1261 62.9187 13.5547 62.9487C15.4119 62.9688 15.7452 62.7785 15.8762 64.01C15.9476 64.7007 15.9476 65.782 15.9 66.5329C15.8881 66.643 15.4476 66.603 15.3166 66.5929C14.9 66.5629 13.2571 66.5429 11.9714 66.4828C8.78087 66.3326 7.34037 66.5028 5.37606 66.7131C5.25701 66.7231 5.14988 66.663 5.12607 66.5629C4.99512 65.8921 4.88796 64.9811 4.95938 64.2703C5.03081 63.5094 4.76892 63.1289 5.86417 63.0088Z" stroke="#BC955C" stroke-miterlimit="10"></path>
<path d="M17.0314 4.26116C17.1505 3.08981 16.0552 1.66818 14.4123 1.38786C9.66228 0.566911 5.66223 1.24771 4.43603 1.61813C1.1741 2.58925 2.59079 8.3759 2.59079 10.178C2.57889 12.5006 2.81698 16.1749 3.06698 18.4975C3.29317 20.6 3.54318 27.578 3.88842 29.6804C4.0908 30.8918 4.36459 40.7432 4.3884 41.9545C4.40031 42.4952 5.05508 60.0454 5.03127 60.1755C4.87651 60.8463 5.59082 60.8063 5.63844 60.8063C6.30511 60.8563 14.6504 60.6361 15.329 60.6461C16.1742 60.6561 15.9718 55.2999 15.9599 52.3065C15.948 47.7412 15.8171 40.5329 15.8766 40.1124C16.1743 37.9599 16.3885 25.6858 16.5314 23.5233C16.8766 18.2372 16.6266 15.3239 16.8766 10.7286C16.9481 9.54724 16.9243 5.44252 17.0314 4.26116ZM11.7932 11.6797C11.567 12.0401 11.0433 12.4906 10.6266 12.6809C9.448 13.2115 8.40035 12.5907 7.88844 11.92C7.16224 10.9589 8.09082 9.5973 9.41226 9.32699C11.1504 8.9866 12.4599 10.6385 11.7932 11.6797ZM12.1385 53.8382C11.5432 55.2398 9.16227 55.2599 8.45988 54.2287C8.22179 53.8683 8.0432 53.2676 8.07892 52.8771C8.17416 51.7658 9.37657 51.3654 10.329 51.3754C11.698 51.3854 12.579 52.767 12.1385 53.8382Z" stroke="#BC955C" stroke-miterlimit="10"></path>
</svg>