<svg version="1.1" id="Calque_1" xmlns="http://www.w3.org/2000/svg" xmlns:xlink="http://www.w3.org/1999/xlink" x="0px" y="0px" viewBox="0 0 1024 1024" style="enable-background:new 0 0 1024 1024;" xml:space="preserve">
<style type="text/css">
	.st0{fill:none;stroke:#BC955C;stroke-width:2;stroke-miterlimit:10;}
	.st1{fill:#FFFFFF;}
	.st2{fill:#F18A00;}
	.st3{fill:#BC955C;}
</style>
<g>
<path class="st0" d="M525.94,771.36c59.66,59.66,113.29,142.91,120.73,150.35L721.95,997L930.1,788.85L508.45,367.2L300.3,575.35
		l75.28,75.28C383.02,658.07,466.28,711.71,525.94,771.36"></path>
<path class="st0" d="M270.94,129.69C190.77,49.52,153.45,19.6,113.3,59.75s-4.11,72.45-4.11,72.45
		c4.35,4.35,10.25,8.09,17.37,10.53c39.28,13.46,57.41,42.13,57.41,42.13s37.6,78.24,87.34,99.57
		c49.77,21.31,101.57,67.02,101.57,67.02l59.92-59.92L270.94,129.69z"></path>
<path class="st1" d="M148.81,107.42c-5.14-5.14-5.14-13.44,0-18.58s13.44-5.14,18.58,0s5.17,13.47,0.03,18.61
		C162.29,112.59,153.95,112.56,148.81,107.42 M341.5,281.53c-5.14-5.14-5.14-13.44,0-18.58c5.14-5.14,13.47-5.16,18.61-0.03
		c5.14,5.14,5.14,13.5,0,18.64S346.63,286.66,341.5,281.53"></path>
<path class="st0" d="M384.36,362.93c0,0,15.84,20.24,7.31,30.97s-11.52,16.9-14.08,25.73c-2.56,8.83-2.03,18.8-0.25,23.96
		l15.89,15.89l103.74-103.74l-52.71-52.71L384.36,362.93z"></path>
<path class="st1" d="M744.06,637.24c-10.13-9.5-20.19-19.09-30.2-28.7c-10.01-9.62-20.12-19.15-30.05-28.85l-59.69-58.11L564.9,463
		l-29.52-29.39L506,404.09h4.92l-43.66,43.2c-14.53,14.42-29.27,28.64-43.93,42.94c-14.71,14.25-29.27,28.64-44.1,42.77
		c-14.82,14.13-29.54,28.37-44.5,42.36c13.99-14.96,28.23-29.68,42.36-44.5c14.13-14.83,28.52-29.39,42.76-44.1
		c14.3-14.66,28.52-29.39,42.94-43.93l43.2-43.66l2.44-2.47l2.48,2.47l29.52,29.38l29.39,29.52l58.58,59.22l58.11,59.69
		c9.71,9.93,19.23,20.04,28.85,30.05C724.97,617.05,734.56,627.1,744.06,637.24"></path>
<path class="st1" d="M828.13,721.31c11.55,10.96,23.04,21.99,34.48,33.06l34.36,33.19l1.31,1.26l-1.31,1.33l-42.95,43.91
		c-14.34,14.61-28.58,29.33-43.01,43.85c-28.75,29.16-57.63,58.19-86.55,87.18l-2.51,2.51l-2.51-2.51l-32.61-32.65l-16.28-16.34
		l-8.14-8.17c-1.26-1.2-2.99-3.27-4.04-4.7c-1.19-1.57-2.38-3.14-3.5-4.7l-26.82-37.55c-9.01-12.43-18.24-24.69-27.56-36.88
		c-18.71-24.31-38.4-47.9-59.82-69.84c-21.36-22.02-44.67-42.14-68.35-61.77c12.36,9.16,24.5,18.63,36.33,28.49
		c11.84,9.85,23.43,20.02,34.57,30.71c22.06,21.61,42.38,44.89,61.72,68.9c19.4,23.95,37.43,49.07,55.47,73.87
		c1.12,1.56,2.26,3.05,3.4,4.54c0.58,0.79,1.13,1.47,1.66,2.06l0.8,0.95l1.01,1.01l8.17,8.14l16.34,16.28l32.65,32.61h-5.02
		c28.99-28.92,58.02-57.8,87.18-86.55c14.52-14.43,29.24-28.67,43.85-43.01l43.91-42.95v2.6l-33.19-34.36
		C850.12,744.35,839.09,732.86,828.13,721.31"></path>
<polygon class="st2" points="596.34,517.76 560.9,589.73 561.12,589.95 632.1,553.53 656.27,577.7 578.18,655.79 562.1,639.71 
		617.45,584.37 617.23,584.15 542.74,620.36 529.51,607.12 565.17,533.18 564.95,532.96 510.15,587.76 494.07,571.68 572.17,493.59 
			"></polygon>
<path class="st2" d="M623.22,670.91c0.07,4.59,2.3,9.08,6.67,13.45c3.13,3.13,6.62,5.05,10.45,5.74s6.87,0.42,9.13-0.82
		l13.67,13.67c-8.97,4.59-17.18,6.09-24.61,4.48c-7.44-1.61-14.37-5.62-20.78-12.03c-4.45-4.45-7.75-9.17-9.9-14.16
		c-2.15-5-3.15-10.05-3.01-15.15c0.14-5.1,1.36-10.15,3.66-15.15c2.29-4.99,5.63-9.68,10.01-14.05c4.23-4.23,8.86-7.47,13.89-9.73
		s10.15-3.45,15.37-3.56c5.21-0.11,10.35,0.84,15.42,2.84s9.75,5.16,14.05,9.46c4.81,4.81,8.08,9.93,9.79,15.37
		c1.72,5.43,2.15,10.87,1.31,16.3s-2.76,10.66-5.74,15.69c-2.99,5.03-6.82,9.59-11.48,13.67l-40.8-40.8
		C625.52,661.39,623.14,666.32,623.22,670.91 M670.52,658.71c0.18-3.9-1.62-7.75-5.41-11.54c-2.48-2.48-4.96-4.12-7.44-4.92
		s-4.83-1.07-7.05-0.82c-2.23,0.26-4.23,0.88-6.02,1.86c-1.79,0.98-3.27,1.99-4.43,3.01l25.26,25.26
		C668.65,666.9,670.34,662.62,670.52,658.71"></path>
<path class="st2" d="M805.33,768.8l-10.39,10.39l-11.38-11.38l-28,28c-2.62,2.62-3.94,4.82-3.94,6.56c0,1.75,1.31,3.94,3.94,6.56
		c0.88,0.88,1.75,1.67,2.63,2.41c0.87,0.73,1.75,1.38,2.62,1.97l-12.03,12.03c-1.53-1.09-3.14-2.41-4.81-3.94
		c-1.68-1.53-3.28-3.06-4.81-4.59c-2.41-2.41-4.52-4.85-6.34-7.33c-1.82-2.48-3.08-5.01-3.77-7.6c-0.69-2.59-0.64-5.23,0.16-7.93
		s2.62-5.47,5.47-8.31l33.36-33.36l-9.41-9.41l10.39-10.39l9.41,9.41l16.95-16.95l15.53,15.53l-16.95,16.95L805.33,768.8z"></path>
<path class="st2" d="M708.53,783.33c0.11-0.47,0.27-0.96,0.47-1.48c0,0,0,0,0-0.01c0.63-1.56,1.71-3.32,3.24-5.29
		c2.04-2.62,4.34-5.21,6.89-7.76l29.42-29.42c3.42-3.42,5.41-6.95,5.96-10.56c0.55-3.61,0.2-7.2-1.04-10.77s-3.12-7.02-5.63-10.34
		c-2.52-3.32-5.19-6.4-8.04-9.24c-3.14-3.14-6.56-5.94-10.28-8.42c-3.72-2.48-7.55-4.23-11.48-5.25s-7.91-1.13-11.92-0.33
		s-7.95,2.92-11.81,6.34l15.53,15.53c3.36-2.77,6.56-3.94,9.63-3.5c3.06,0.44,6.13,2.19,9.19,5.25c1.38,1.38,2.58,2.77,3.61,4.15
		c1.02,1.39,1.71,2.81,2.08,4.27c0.36,1.46,0.33,2.95-0.11,4.48c-0.44,1.53-1.5,3.13-3.17,4.81c-1.53,1.68-3.23,2.43-5.08,2.24
		c-1.86-0.18-3.88-0.93-6.07-2.24s-4.52-2.99-7-5.03c-2.48-2.04-5.07-4.05-7.77-6.02c-2.7-1.97-5.51-3.79-8.42-5.47
		s-5.89-2.79-8.91-3.34c-3.03-0.55-6.14-0.35-9.35,0.6c-3.21,0.95-6.42,3.03-9.63,6.23c-2.92,2.92-4.94,5.93-6.07,9.02
		c-1.13,3.1-1.51,6.22-1.15,9.35s1.38,6.2,3.06,9.19s3.87,5.83,6.56,8.53c3.5,3.5,7.44,6.41,11.81,8.75
		c4.37,2.33,9.08,3.46,14.11,3.39c-0.88,1.02-1.68,2.08-2.41,3.18c-0.73,1.09-1.39,2.22-1.97,3.39c-0.53,1-0.71,2.14-0.71,2.14
		l16.61,16.61C708.12,785.64,708.27,784.37,708.53,783.33 M712.9,743.97c-0.88,0.88-2.13,1.95-3.77,3.23
		c-1.64,1.28-3.57,2.22-5.8,2.84c-2.22,0.62-4.69,0.6-7.38-0.05c-2.7-0.66-5.58-2.52-8.64-5.58c-1.24-1.24-2.33-2.55-3.28-3.94
		s-1.58-2.79-1.91-4.21c-0.33-1.42-0.28-2.87,0.16-4.32c0.44-1.46,1.35-2.88,2.74-4.27c1.46-1.46,2.91-2.41,4.37-2.84
		c1.45-0.44,2.92-0.55,4.37-0.33s2.93,0.71,4.43,1.48c1.5,0.77,2.94,1.62,4.32,2.57c1.46,1.02,2.88,2.08,4.27,3.17
		c1.39,1.09,2.75,2.1,4.1,3.01c1.35,0.91,2.68,1.7,3.99,2.35c1.31,0.66,2.59,1.02,3.83,1.09L712.9,743.97z"></path>
<path class="st3" d="M619.32,679.68c-14.69-14.69-40.91-11.36-59.64,6.23c-17.87,4.35-38.04,5.88-42.32,1.61
		c-7.46-7.46,75.17-34.63,82.52-41.98c4.9-4.9,5.23-13.03,0.78-17.48c-6.79-6.79-25.28-4.56-43.21,0
		c16.04-7.35,28.51-17.15,17.6-28.06c-6.13-6.13-22.27-5.12-40.65-0.78c3.34-2,5.9-3.9,7.9-5.68c8.02-7.13,10.13-13.47,6.01-18.71
		l-0.11-0.11l-0.45-0.45l-0.33-0.33l-12.25-11.8c-2.78-3.01-14.92,1.34-11.36,4.9l17.71,9.69c1,1,0.56,2.78-0.67,3.79
		c-11.02,9.47-82.3,32.19-99,48.89c-6.57,6.57-12.7,18.26-9.47,21.49c10.8-10.8,31.51-21.94,53.79-31.07
		c6.46-2.23,13.58-4.9,20.49-7.57c30.96-10.69,60.14-16.04,66.15-10.02c7.13,7.13-67.6,28.62-80.29,41.31
		c-4.68,4.68-9.02,13.92-6.79,16.15c10.25-10.25,101.12-40.98,112.7-29.4c6.68,6.68-67.71,27.17-79.85,39.31
		c-6.57,6.57-7.57,15.37-3.12,19.82c6.29,6.29,22.53,5.27,39.28,1.71c-9.4,11.35-13.17,26.64-6.03,33.78
		c16.7,16.7,53.68,8.02,70.27-8.58C629.01,706.3,631.35,691.71,619.32,679.68 M550.61,720.11c-3.34-3.34-2.23-7.57,3.01-12.58
		c20.6-20.83,59.36-29.73,67.38-21.72c4.23,4.23,1.45,11.47-6.01,18.93l0.11,0.11C596.83,721.11,560.63,730.13,550.61,720.11"></path>
<path class="st3" d="M670.25,730.61c-15.14-15.14-42.54-11.14-61.36,7.91c-11.69,11.47-17.15,29.4-9.24,37.31
		c16.7,16.7,53.68,8.02,70.27-8.58C679.94,757.23,682.28,742.64,670.25,730.61 M601.54,771.04c-3.34-3.34-2.23-7.57,3.01-12.58
		c20.6-20.83,59.36-29.73,67.38-21.72c4.23,4.23,1.45,11.47-6.02,18.93l0.11,0.11C647.75,772.04,611.56,781.06,601.54,771.04"></path>
<path class="st3" d="M706.11,806.12c-17.15,17.15-72.16,16.93-61.58,5.68c9.8-10.25,41.2-22.94,64.48-31.96
		c5.01,4.34,9.24,8.13,10.14,9.47l4.01-4.01c-2.45-2.45-5.24-5.01-8.13-7.69c11.92-4.56,20.82-7.91,21.83-8.91
		c1.56-1.56-4.56-17.04-7.35-14.25c-1.89,1.89-12.69,6.68-26.17,12.81c-1.78-1.78-3.56-3.34-4.79-4.57l-4.01,4.01
		c0.89,0.89,1.89,1.89,3.23,3.01c-22.39,9.91-49,21.83-55.24,28.06c-6.57,6.57-4.9,16.04-1.67,19.27
		c13.92,13.92,62.36,3.12,75.28-9.8C716.8,806.56,708.67,803.56,706.11,806.12"></path>
</g>
</svg>