<svg width="649" height="169" viewBox="0 0 649 169" fill="none" xmlns="http://www.w3.org/2000/svg">
<path d="M314.623 77.3644C331.556 76.5932 346.386 75.4713 363.354 75.2609C371.487 75.1558 382.215 74.9805 391.996 74.9103C398.867 74.8402 409.28 75.2609 414.433 75.5765C418.921 75.8569 419.306 72.877 419.517 68.9154C419.832 62.2895 421.375 48.0208 421.375 41.3598C421.375 28.2831 422.076 22.183 422.181 14.4001C422.216 10.8593 424.53 6.54718 420.639 6.33683C416.537 6.12648 406.37 6.37195 402.338 6.61735C393.714 7.07311 378.253 6.442 369.629 6.54717C335.938 6.93281 316.341 7.00305 282.37 6.89788C248.889 6.82776 206.82 6.72256 173.444 9.2818C137.194 12.0864 107.746 12.8576 72.2318 21.2014C56.9465 24.7773 38.1203 30.5268 25.9552 41.535C20.0654 46.8638 12.2475 55.5934 9.0572 62.605C3.55308 74.7001 -0.478675 79.468 1.51963 81.1157C6.00706 84.7968 17.9268 93.6664 23.3958 95.7699C37.6644 101.309 48.5676 102.15 63.8178 102.746C96.4919 104.009 128.745 97.6981 160.999 93.2106C193.848 88.6531 233.288 82.5881 266.418 80.2392C282.44 79.1524 298.531 78.1007 314.623 77.3644Z" stroke="#BC955C" stroke-miterlimit="10"></path>
<path d="M617.454 39.3966C609.39 42.8323 606.866 43.1127 598.276 42.4115C577.312 40.6586 561.641 38.2748 540.536 39.2564C525.987 39.9225 515.785 42.5168 505.724 43.6036C496.609 44.6203 487.248 47.1444 478.203 47.495C472.979 47.6703 464.881 46.8289 465.021 49.3881C466.388 58.8889 466.984 62.9556 465.617 76.9788C465.512 78.1006 465.933 80.9053 470.595 81.1858C477.502 81.6416 481.954 81.2559 488.86 81.361C510.561 81.6415 547.688 82.4829 569.389 82.2375C592.352 81.9921 622.817 81.7467 630.495 77.8903C641.328 72.4914 646.306 64.7436 644.869 52.929C644.238 47.7054 639.82 39.537 634.211 37.3634C629.478 35.5053 621.59 37.6086 617.454 39.3966ZM492.507 68.7051C488.545 68.2494 485.249 63.797 486.932 60.1861C488.124 57.6268 490.929 55.1026 494.575 56.5049C495.872 57.0308 497.59 58.3981 498.396 59.59C500.815 62.9907 497.73 69.2661 492.507 68.7051ZM614.964 54.7871C619.066 55.6285 621.135 62.2895 616.928 65.4798C613.737 67.8988 608.303 66.8821 607.041 63.0958C606.165 60.4314 606.445 56.6451 610.091 55.1727C611.388 54.6819 613.562 54.5066 614.964 54.7871Z" stroke="#BC955C" stroke-miterlimit="10"></path>
<path d="M430.909 4.61887C430.909 9.17641 430.419 13.2781 430.138 19.9041C429.682 30.9123 429.051 33.1911 428.245 44.1993C427.929 48.6166 427.509 68.3193 425.896 76.5229C425.23 79.8534 427.018 81.1856 428.666 81.2557C436.449 81.466 447.282 81.2207 451.524 81.2207C453.171 81.2207 454.118 81.1856 455.064 81.1505C456.852 81.0804 458.325 79.7132 458.535 77.9252C459.762 67.2676 458.956 65.8301 458.5 58.5731C458.29 47.4597 456.046 42.797 455.625 40.0625C454.714 34.3831 454.048 20.6053 451.874 16.3983C449.175 11.1396 446.09 6.16133 439.744 3.21646C435.572 1.25321 430.909 -1.16571 430.909 4.61887Z" stroke="#BC955C" stroke-miterlimit="10"></path>
<path d="M219.176 122.481C218.856 124.684 220.539 128.811 219.176 143.314C218.696 148.322 219.617 158.418 219.336 163.145C219.256 164.187 214.008 164.067 211.124 164.187C209.561 164.267 197.662 164.187 196.1 164.187C194.978 164.227 190.651 164.828 190.611 164.067C190.411 159.82 190.451 146.759 191.533 143.314C192.855 139.147 194.136 141.391 199.265 140.149C204.232 138.907 209.481 124.805 211.804 122.361C214.048 119.997 213.287 117.754 218.936 117.513C219.697 117.433 219.257 121.92 219.176 122.481Z" stroke="#BC955C" stroke-miterlimit="10"></path>
<path d="M381.45 118.754C411.818 119.355 423.235 117.472 462.738 119.075C488.178 120.117 508.13 121.198 525.197 121.479C542.504 121.759 555.164 122.16 572.431 122.801C604.121 124.003 641.621 123.362 646.028 134.579C649.313 141.51 647.991 148.762 646.669 150.925C641.541 159.419 634.73 161.141 622.03 161.382C607.046 161.702 592.143 162.223 577.199 162.664C545.108 163.545 512.897 164.266 480.806 163.706C449.197 163.145 425.159 162.223 386.618 163.145C354.767 163.906 322.797 163.064 290.946 164.106C278.767 164.507 266.428 164.707 246.316 164.987C241.388 165.067 227.246 165.268 226.965 163.064C226.084 155.733 227.166 153.69 226.725 149.563C225.764 140.669 226.885 137.544 226.565 131.294C226.244 124.764 225.163 117.152 228.648 117.232C234.818 117.312 245.074 116.551 251.204 116.551C258.776 116.551 266.348 116.07 273.92 116.27C305.77 116.952 349.72 118.113 381.45 118.754ZM318.63 123.081C317.749 123.081 315.786 123.081 314.944 123.482C315.185 124.363 315.946 128.931 316.427 130.092C317.028 129.211 316.948 127.849 317.308 126.286L318.63 123.081ZM297.277 122.961C296.395 122.921 296.956 123.762 297.156 124.604C297.477 125.886 297.196 125.726 297.637 127.128C297.837 127.849 297.957 130.493 298.438 130.453C298.759 130.413 299.28 127.088 299.48 126.807C299.881 126.166 300.281 123.802 300.722 123.081C300.842 123.121 297.397 122.761 297.277 122.961ZM624.834 133.858C624.834 133.979 626.317 130.493 625.756 130.413C624.995 130.333 622.511 129.131 622.751 129.892C623.112 131.054 622.871 132.176 622.991 133.698C623.111 135.06 622.991 137.304 622.951 138.666L624.834 133.858ZM610.251 133.217C610.452 131.935 611.333 130.213 612.014 129.371C611.293 129.171 609.77 128.69 608.568 128.65C607.767 128.61 608.528 130.813 608.528 131.935C608.528 133.257 608.729 134.139 608.689 135.461C608.609 136.703 608.889 137.304 609.009 138.666C608.889 136.863 609.971 134.9 610.251 133.217ZM594.947 134.339C595.227 133.858 595.388 132.336 595.508 131.815C595.748 130.773 595.748 130.293 596.269 129.411L596.71 128.73C595.828 128.73 592.743 127.689 592.944 128.65C593.545 131.775 594.065 136.863 594.346 137.945C594.626 137.424 594.706 134.74 594.947 134.339ZM578.921 130.052L579.242 128.129C578.641 128.129 576.277 127.528 576.397 128.33C576.718 130.373 577.319 135.461 577.279 136.422C578.201 133.979 578.441 132.055 578.921 130.052ZM562.576 132.015C563.257 130.373 563.858 127.929 563.858 127.929C562.736 127.929 561.254 127.488 560.172 128.009C560.012 129.331 560.573 130.012 560.733 131.494C561.214 133.418 561.494 135.902 561.454 136.102C561.614 135.861 562.496 132.256 562.576 132.015ZM545.308 135.581C546.59 134.499 546.591 128.93 547.672 127.809C547.071 127.809 543.826 127.048 543.986 127.889C544.387 129.932 545.148 134.9 545.308 135.581ZM284.617 126.046L285.057 123.282C285.097 123.282 282.934 123.442 282.052 123.282C282.934 124.443 282.413 128.53 283.495 130.813C284.376 129.291 283.976 126.326 284.617 126.046ZM249.841 122.24C249.2 122.641 250.202 124.403 250.402 126.046C250.643 127.929 250.963 128.61 251.124 130.092C251.805 130.132 252.326 126.767 252.726 125.044C253.287 125.004 253.968 121.879 253.968 121.879C253.968 121.879 252.526 122 252.526 122.08C252.005 122.12 250.402 121.919 249.841 122.24ZM266.188 121.999C266.027 123.442 267.189 129.331 267.429 130.733C268.07 130.613 268.591 126.086 268.871 125.445C269.112 124.884 268.992 123.602 269.352 123.522L269.593 121.799C268.391 122.721 267.51 121.318 266.188 121.999Z" stroke="#BC955C" stroke-miterlimit="10"></path>
<path d="M42.2075 130.901C48.9382 132.624 58.6736 131.502 65.5645 130.621C80.1876 128.698 99.2579 127.015 114.081 126.975C129.185 126.935 137.398 129.139 152.221 131.863C158.832 133.065 169.889 136.15 176.54 137.312C181.468 138.193 184.312 137.952 183.27 143.762C182.189 149.651 181.828 155.66 181.948 161.069C182.069 167.319 179.024 165.957 174.336 166.157C160.034 166.718 131.509 167.599 117.206 167.84C102.383 168.12 88.2803 168.04 73.4569 167.559C60.0357 167.119 53.7858 166.838 40.4046 165.917C28.9065 165.116 11.1185 167.039 4.50805 155.18C-2.62322 142.36 2.18422 131.342 16.607 126.134C23.4578 123.61 35.2365 129.099 42.2075 130.901ZM146.292 155.821C149.096 156.582 152.942 156.101 154.265 152.255C154.745 150.893 154.785 148.609 154.385 147.167C153.303 143.001 146.332 141.238 143.327 145.725C141.004 149.17 142.326 154.739 146.292 155.821ZM25.3009 140.036C23.7385 140.597 22.4963 141.839 21.8954 143.361C21.7752 143.642 21.6951 143.882 21.655 144.162C19.4115 154.459 34.4753 154.98 34.6756 146.166C34.7557 140.957 29.3473 138.634 25.3009 140.036Z" stroke="#BC955C" stroke-miterlimit="10"></path>
</svg>