<svg xmlns="http://www.w3.org/2000/svg" height="55" width="55" viewBox="0 0 488 512" fill="white">
  <path d="M488 261.8c0-17.8-1.4-35.6-4.4-52.6H249.2v99.9h135.4c-6.2 33-24.8 61-52.6 79.6v66.2h84.6c49.6-45.8 77.8-113.2 77.8-193.1zM249.2 497c67.8 0 124.6-22.6 165.6-61.6l-84.6-66.2c-23.4 15.6-52.8 25.2-81 25.2-62.4 0-115.4-42.2-134.2-99.4H26.8v62.4c40.6 78.2 124.6 139.6 222.4 139.6zM115 315.2c-6.2-18.6-9.6-38.2-9.6-58.2s3.4-39.6 9.6-58.2v-62.4H26.8C9.6 168.4 0 201.4 0 256.8s9.6 88.4 26.8 120.2l88.2-61.8zM249.2 107.4c43.4 0 82.2 16.6 112.6 49.6l82.6-82.6C388.2 26.4 333.8 0 249.2 0 151.4 0 67.4 61.4 26.8 139.6l88.2 62.4c18.8-57.2 71.8-99.6 134.2-99.6z"/>
</svg>
